<?xml version="1.0" encoding="utf-8"?>
<!-- Generator: Adobe Illustrator 23.1.0, SVG Export Plug-In . SVG Version: 6.00 Build 0)  -->
<svg version="1.1" id="Layer_1" xmlns="http://www.w3.org/2000/svg" xmlns:xlink="http://www.w3.org/1999/xlink" x="0px" y="0px"
	 viewBox="0 0 1920 1080" style="enable-background:new 0 0 1920 1080;" xml:space="preserve">
<style type="text/css">
	.st0{fill:#F2F2F2;}
	.st1{fill:#FFFFFF;}
	.st2{fill:#60605E;}
	.st3{fill:#FFFFFF;stroke:#60605E;stroke-miterlimit:10;}
	.st4{fill:none;stroke:#D8B212;stroke-width:2;stroke-miterlimit:10;}
	.st5{fill:none;stroke:#D8B212;stroke-miterlimit:10;}
	.st6{fill:none;stroke:#E5E5E5;stroke-miterlimit:10;}
</style>
<path class="st0" d="M860.5,624.5l187-2c0,0-5.8-73.83-39.9-167.92c-0.1-0.08-101.47-0.08-101.47-0.08S864.5,523.5,860.5,624.5z"/>
<g>
	<circle class="st1" cx="960" cy="390" r="29.5"/>
	<path class="st2" d="M960,361c15.99,0,29,13.01,29,29s-13.01,29-29,29s-29-13.01-29-29S944.01,361,960,361 M960,360
		c-16.57,0-30,13.43-30,30s13.43,30,30,30s30-13.43,30-30S976.57,360,960,360L960,360z"/>
</g>
<polygon class="st3" points="959.5,419.5 952.5,427.5 959.5,440.5 966.5,427.5 "/>
<path class="st2" d="M959.5,441.5c0,0-38,3-59,13h112C1012.5,454.5,993.5,442.5,959.5,441.5z"/>
<path class="st4" d="M1005.8,454.5C1040,542,1046,623,1046,623H860c9-114,47.25-168.5,47.25-168.5"/>
<g>
	<path class="st5" d="M869.95,554.12c0,0,23.55-99.62,86.55-99.62s78.76,99.62,78.76,99.62"/>
	<path class="st5" d="M869.95,555.62c0,0,23.55-99.62,86.55-99.62s78.76,99.62,78.76,99.62"/>
	<path class="st5" d="M869.95,557.12c0,0,23.55-99.62,86.55-99.62s78.76,99.62,78.76,99.62"/>
</g>
<g>
	<path class="st5" d="M900.5,623c0,0,8-105.5,56-168.5"/>
	<path class="st5" d="M901.25,623.75c0,0,8-105.5,56-168.5"/>
	<path class="st5" d="M902,624.5c0,0,8-105.5,56-168.5"/>
</g>
<g>
	<path class="st5" d="M907.5,454.5c0,0-30,40,49,168.5"/>
	<path class="st5" d="M908.5,454.5c0,0-30,40,49,168.5"/>
	<path class="st5" d="M909.5,454.5c0,0-30,40,49,168.5"/>
</g>
<g>
	<path class="st5" d="M1005.42,454.5c0,0,29.95,40-48.92,168.5"/>
	<path class="st5" d="M1004.42,454.5c0,0,29.95,40-48.92,168.5"/>
	<path class="st5" d="M1003.42,454.5c0,0,29.95,40-48.92,168.5"/>
</g>
<g>
	<path class="st5" d="M1011,623.08c0,0-7.74-105.5-54.15-168.5"/>
	<path class="st5" d="M1010,623.08c0,0-7.74-105.5-54.15-168.5"/>
	<path class="st5" d="M1009,623.08c0,0-7.74-105.5-54.15-168.5"/>
</g>
<path class="st6" d="M863.5,622.5c0,0,10.55-30.02,25.99-30.02C904.94,592.48,913,622,913,622"/>
<path class="st6" d="M908.5,622.5c0,0,10.55-30.02,25.99-30.02C949.94,592.48,958,622,958,622"/>
<path class="st6" d="M953.5,622.5c0,0,9.34-29.72,24.47-29.72c15.13,0,23.53,29.72,23.53,29.72"/>
<path class="st6" d="M995.5,622.5c0,0,9.34-29.72,24.47-29.72s23.53,29.72,23.53,29.72"/>
<path class="st6" d="M929.21,454.5"/>
<path class="st4" d="M1005.1,453.5c34.2,89.58,40.2,172.5,40.2,172.5h-186c9-116.71,47.25-172.5,47.25-172.5"/>
</svg>
